<?xml version="1.0" encoding="UTF-8"?>
<svg xmlns="http://www.w3.org/2000/svg" viewBox="0 0 680 400" width="680" height="400">
  <rect width="680" height="400" fill="#ffffff"/>
  <path d="M 50.00 350.00 A 290 290 0 0 1 134.94 144.94 L 219.79 229.79 A 170 170 0 0 0 170.00 350.00 Z" fill="#ebedf0"/>
  <path d="M 134.94 144.94 A 290 290 0 0 1 294.63 63.57 L 313.41 182.09 A 170 170 0 0 0 219.79 229.79 Z" fill="#ebedf0"/>
  <path d="M 294.63 63.57 A 290 290 0 0 1 385.37 63.57 L 366.59 182.09 A 170 170 0 0 0 313.41 182.09 Z" fill="#F5DC85"/>
  <path d="M 385.37 63.57 A 290 290 0 0 1 545.06 144.94 L 460.21 229.79 A 170 170 0 0 0 366.59 182.09 Z" fill="#ebedf0"/>
  <path d="M 545.06 144.94 A 290 290 0 0 1 630.00 350.00 L 510.00 350.00 A 170 170 0 0 0 460.21 229.79 Z" fill="#ebedf0"/>
  <circle cx="209.63" cy="329.35" r="1.6" fill="#9aa0a6"/>
  <circle cx="214.46" cy="309.21" r="1.6" fill="#9aa0a6"/>
  <circle cx="222.39" cy="290.07" r="1.6" fill="#9aa0a6"/>
  <circle cx="233.21" cy="272.41" r="1.6" fill="#9aa0a6"/>
  <circle cx="262.41" cy="243.21" r="1.6" fill="#9aa0a6"/>
  <circle cx="280.07" cy="232.39" r="1.6" fill="#9aa0a6"/>
  <circle cx="299.21" cy="224.46" r="1.6" fill="#9aa0a6"/>
  <circle cx="319.35" cy="219.63" r="1.6" fill="#9aa0a6"/>
  <circle cx="360.65" cy="219.63" r="1.6" fill="#9aa0a6"/>
  <circle cx="380.79" cy="224.46" r="1.6" fill="#9aa0a6"/>
  <circle cx="399.93" cy="232.39" r="1.6" fill="#9aa0a6"/>
  <circle cx="417.59" cy="243.21" r="1.6" fill="#9aa0a6"/>
  <circle cx="446.79" cy="272.41" r="1.6" fill="#9aa0a6"/>
  <circle cx="457.61" cy="290.07" r="1.6" fill="#9aa0a6"/>
  <circle cx="465.54" cy="309.21" r="1.6" fill="#9aa0a6"/>
  <circle cx="470.37" cy="329.35" r="1.6" fill="#9aa0a6"/>
  <text x="192.00" y="350.00" text-anchor="middle" dominant-baseline="central" font-family="-apple-system, BlinkMacSystemFont, 'Segoe UI', Roboto, sans-serif" font-size="13" font-weight="400" fill="#9aa0a6">0</text>
  <text x="235.35" y="245.35" text-anchor="middle" dominant-baseline="central" font-family="-apple-system, BlinkMacSystemFont, 'Segoe UI', Roboto, sans-serif" font-size="13" font-weight="400" fill="#9aa0a6">25</text>
  <text x="340.00" y="202.00" text-anchor="middle" dominant-baseline="central" font-family="-apple-system, BlinkMacSystemFont, 'Segoe UI', Roboto, sans-serif" font-size="13" font-weight="400" fill="#9aa0a6">50</text>
  <text x="444.65" y="245.35" text-anchor="middle" dominant-baseline="central" font-family="-apple-system, BlinkMacSystemFont, 'Segoe UI', Roboto, sans-serif" font-size="13" font-weight="400" fill="#9aa0a6">75</text>
  <text x="488.00" y="350.00" text-anchor="middle" dominant-baseline="central" font-family="-apple-system, BlinkMacSystemFont, 'Segoe UI', Roboto, sans-serif" font-size="13" font-weight="400" fill="#9aa0a6">100</text>
  <text transform="rotate(-67.50 127.51 261.98)" x="127.51" y="261.98" text-anchor="middle" dominant-baseline="central" font-family="-apple-system, BlinkMacSystemFont, 'Segoe UI', Roboto, sans-serif" font-size="13" font-weight="700" fill="#3a3a3a"><tspan x="127.51" dy="-7">EXTREME</tspan><tspan x="127.51" dy="14">FEAR</tspan></text>
  <text transform="rotate(-27.00 235.58 145.07)" x="235.58" y="145.07" text-anchor="middle" dominant-baseline="central" font-family="-apple-system, BlinkMacSystemFont, 'Segoe UI', Roboto, sans-serif" font-size="13" font-weight="700" fill="#3a3a3a"><tspan x="235.58" dy="0">FEAR</tspan></text>
  <text transform="rotate(0.00 340.00 120.00)" x="340.00" y="120.00" text-anchor="middle" dominant-baseline="central" font-family="-apple-system, BlinkMacSystemFont, 'Segoe UI', Roboto, sans-serif" font-size="13" font-weight="700" fill="#3a3a3a"><tspan x="340.00" dy="0">NEUTRAL</tspan></text>
  <text transform="rotate(27.00 444.42 145.07)" x="444.42" y="145.07" text-anchor="middle" dominant-baseline="central" font-family="-apple-system, BlinkMacSystemFont, 'Segoe UI', Roboto, sans-serif" font-size="13" font-weight="700" fill="#3a3a3a"><tspan x="444.42" dy="0">GREED</tspan></text>
  <text transform="rotate(67.50 552.49 261.98)" x="552.49" y="261.98" text-anchor="middle" dominant-baseline="central" font-family="-apple-system, BlinkMacSystemFont, 'Segoe UI', Roboto, sans-serif" font-size="13" font-weight="700" fill="#3a3a3a"><tspan x="552.49" dy="-7">EXTREME</tspan><tspan x="552.49" dy="14">GREED</tspan></text>
  <line x1="340" y1="350" x2="298.56" y2="67.02" stroke="#1a1a1a" stroke-width="4" stroke-linecap="round"/>
  <circle cx="340" cy="350" r="48" fill="#ffffff"/>
  <text x="340" y="350" text-anchor="middle" dominant-baseline="central" font-family="-apple-system, BlinkMacSystemFont, 'Segoe UI', Roboto, sans-serif" font-size="34" font-weight="800" fill="#1a1a1a">45</text>
</svg>